<?xml version="1.0" encoding="utf-8"?>
<!-- Generator: Adobe Illustrator 25.4.1, SVG Export Plug-In . SVG Version: 6.00 Build 0)  -->
<svg version="1.1" id="Слой_1" xmlns="http://www.w3.org/2000/svg" xmlns:xlink="http://www.w3.org/1999/xlink" x="0px" y="0px"
	 viewBox="0 0 2322.6 1514.6" style="enable-background:new 0 0 2322.6 1514.6;" xml:space="preserve">
<style type="text/css">
	.st0{fill:#EAC81F;}
	.st1{fill:#FFFFFF;}
</style>
<path class="st0" d="M837.3,1125.2c8,0.6,15.9,1.4,23.9,1.6c23,0.6,46,0.8,69,1.2c140,2.7,280,4,420,2.6c67-0.6,134-2.5,200.9-6.3
	c38.4-2.2,76.8-5.1,114.8-11.3c12.8-2.1,25.6-4.6,37.9-8.8c5.2-1.7,10.3-3.8,14.9-7c6-4.2,6.4-9.7,1.4-15.3c-3.1-3.3-6.8-6-10.8-7.9
	c-7.6-3.8-15.5-6.9-23.7-9.3c-23-7-46.6-11.3-70.3-14.9c-61.8-9.4-124-14.7-186.4-18.7c-41.9-2.7-83.8-5-125.8-6.2
	c-7,0-14-0.5-20.9-1.4c-12.6-2-20.2-11.7-19.8-24.2c0.5-12.3,9-21.2,21.8-22.5c1.5-0.1,3-0.2,4.5-0.1c26,0.7,52,1.2,77.9,2.4
	c27,1.3,53.9,2.9,80.8,5c42.3,3.3,84.6,7.5,126.6,13.8c32.1,4.8,64,10.6,95.5,18.9c20.3,5.4,40.2,11.8,59.2,21
	c8.6,4.1,16.7,9,24.2,14.9c5.2,4,9.7,8.8,13.3,14.2c6.2,9.8,8.5,20.1,4.8,31.4c-4.8,14.8-13.3,26.7-27.2,34.4
	c-10.6,5.8-21.8,9.8-33.4,13.1c-25,7.2-50.6,11.6-76.4,14.8c-59.6,7.6-119.4,10.8-179.4,13c-106.5,3.9-213,2.8-319.4,1.1
	c-70-1.2-139.9-3.4-209.9-5.8c-67-2.3-133.9-5.4-200.8-8.1c-42.5-1.7-84.9-3.6-127.3-5.1c-52-1.8-104-1.2-156,0.3
	c-39,1.2-77.9,2.8-116.9,4.5c-59.9,2.6-119.7,7.3-179.1,15.7c-23.2,3.3-46.3,7.5-68.9,14.3c-8.2,2.4-16.1,5.4-23.7,9.1
	c-4.5,2.1-8.7,5-12.2,8.6c-7.2,7.6-6.5,17.3,2.1,23.1c6.2,4.2,13,7.6,20.7,8c6-2,11.9-0.2,17.7,1c73.4,15.4,147.9,21.1,222.4,27.1
	c45.2,3.6,90.3,7.4,135.6,9c5,0.2,10.1,0.2,13.6,4.7c3.2,1.9,6.8,1.7,10.2,1.8c33,0.8,65.8,4.2,98.8,4.3c20,0.1,39.9,2.3,59.9,3.3
	c29.4,1.6,58.9,3.2,88.3,4.4c62.4,2.5,124.8,4.7,187.3,7.2c73.4,3,146.8,6.1,220.2,9.3c28.4,1.3,56.9,2.7,85.3,5.5
	c65.2,6.4,129.6,17.7,191.9,38.7c13.8,4.5,27,10.5,39.4,18c6.4,4,12.4,8.4,17.3,14.2c12.5,15.2,7.9,34.4-10.2,41.8
	c-10.2,4.2-21.1,5.8-32.1,7c-41.4,4.5-82.9,3.3-124.3,1.6c-24.5-1-48.9-2.6-73.3-4.4c-34.9-2.6-69.7-5.5-104.6-8.4
	c-26.4-2.2-52.8-4.7-79.1-7.1c-22.9-2.1-45.8-3.8-68.6-6.6c-20.4-2.4-40.9-3-61.3-4c-56.4-2.8-112.9-4.4-169.3-0.7
	c-48,3.2-95.4,10-140.9,26.5c-12.6,4.6-24.9,10.1-37.4,15.2l-3.5,2.1c-0.5,0.8-1.4,1.2-2.3,1c-1.5,0.3-2.5,1.5-3.7,2.3
	c-0.3,0.7-1.1,1.1-1.9,0.9c-1.8,0.1-3,1.3-4.1,2.5l0,0c-3.5,2.1-6,2.1-6-2.9l0,0c0.8-0.9,1.9-1.7,3-2.2c0.4-0.8,1.2-1.3,2.1-1.2
	c1.7-0.3,2.7-1.4,3.8-2.6l0,0c1.6-1.8,4.5-1.2,5.8-3.4c13.1-9.5,28-15.2,42.9-20.8c33.4-12.5,68.2-19.2,103.4-23.9
	c49.7-6.6,99.7-7.2,149.7-7.8c24-0.3,48,1.6,71.9,2.9c27.5,1.4,54.9,3.3,82.3,5c42.4,2.6,84.8,5.2,127.2,7.8
	c19.5,1.2,38.9,2.4,58.4,3.2c53.4,2.1,106.9,4.1,160.3,5.9c24,0.7,48,0,71.9-1.9c6-0.3,11.9-1.4,17.6-3.4c6.1-2.2,8.3-9.3,4.7-14.8
	c-2.8-4.3-7-7-11.4-9.5c-9.2-5.2-19.2-8.5-29.2-11.4c-28.3-8.3-57.3-13.4-86.4-18.1c-46.4-7.4-93.1-12.6-139.8-17.1
	c-41.8-4-83.7-6.8-125.5-10c-81.8-6.1-163.8-5.2-245.8-6.3c-64-0.9-128-2-191.9-3.4c-21-0.4-42-1.9-62.9-2.3
	c-54-0.8-107.9-3.5-161.8-6.5c-46.9-2.6-93.8-5.9-140.5-10.6c-40.3-4.1-80.4-8.8-120.3-15.9c-24.1-4.3-48-9.7-71.1-17.9
	c-9.4-3.4-18.6-7.3-27-12.9c-23-15.4-26.4-44.5-7.6-64.8c7.6-8.2,16.8-14.2,26.5-19.3c20-10.5,41.5-17.2,63.3-22.7
	c34.4-8.7,69.4-14.3,104.7-18.5c93-11.1,186.3-14.2,279.9-12.2c31.5,0.7,63,1.1,94.5,1.6c3-0.1,5.9-0.4,8.8-0.8
	c22.3,1.8,44.5,2.5,66.8-0.8c14.3-2,28.9-2,43.2-0.3c39.2,4.6,78.5,0.9,117.7,2.4C824.5,1120.9,831.6,1120,837.3,1125.2z"/>
<path class="st1" d="M2320.6,5.2c-23.3,17.8-46.7,35.5-70,53.3c-0.9,0.5-1.8,0.8-2.7,1.1c-4.4,0-7.6,1.9-8.8,6.3
	c-1.5,0.3-2.7,1.3-3.3,2.7l0,0c-4.4,0.1-7.5,1.9-8.7,6.3c-1.3,0.6-2.4,1.5-3.3,2.6l0,0c-2.7,0.2-5,0.7-5.4,4l0,0l0,0
	c-16.3,13.8-33.6,26.5-51.6,38c-2.6,0.1-4.9,0.7-5.4,3.6l0,0h-0.3c-0.1,0-0.2,0-0.3,0.1h-0.2c-1.2,0.3-2.1,1.3-2.5,2.4
	c-4.6-0.2-7.7,1.6-8.8,6.3c-1.5,0.2-2.8,1.2-3.3,2.6l0,0v0.1l0,0c-2.1,2-4.3,4-6.5,5.8c-19.8,14.3-39.6,28.6-59.4,42.8
	c-2.8,2-5.9,3.6-8.8,5.4c-4.6-0.1-7.7,1.7-9,6.2l-0.1,0.2c0,0,0,0,0,0.1h0.1c-1.2,1.5-2.5,2.8-4,4c-30.7,21.8-61.4,43.6-92.1,65.4
	c-1.7,1-3.4,1.9-5.2,2.7c-0.3,0.4-0.4,1-0.8,1.2c-27.5,19.4-55,38.7-82.5,58.1c-0.5,0.2-0.9,0.3-1.4,0.4c-3.6,5-9.2,7.7-14,11
	c-15.3,10.2-29.5,22.2-45.8,31c-4,5.2-9.8,8-15,11.6c-15,10.1-29,21.8-44.9,30.5c-1.7,1.8-3.5,3.4-5.5,4.9
	c-58.5,41.1-117.1,82.1-175.6,123c-2.5,1.6-5.1,3-7.8,4.3v-0.1h-0.1h-0.2l0,0c0,0-0.1,0-0.1,0c-0.1,0-0.2,0-0.3,0.1
	c-1.3,0.3-2.4,1.3-2.9,2.5c-2.8,0.1-5.2,0.9-5.7,4.1c-37.4,29.8-76.2,57.6-117.6,81.6c-1.8,0.9-3.6,1.6-5.5,2.2
	c-2.3,1.8-4.7,3.5-7.2,5c-24.7,13.6-50,26.1-75.9,37.2c-2.3,0.8-4.6,1.5-7,2l0,0h-0.2c-2.5-0.1-4.7,0.4-6.1,2.8l0,0
	c-3.3,0.1-6.9-0.6-8.7,3.4l0,0c-2.6-0.3-4.9,0.1-6.2,2.7c-3.4,0-7-0.8-8.7,3.4c-2.6-0.4-4.9,0-6.2,2.7c-3.5,0-7.2-0.8-8.9,3.7
	c-13,7.3-27.5,11.1-41.1,16.8c-8.2,3.4-16.6,6.4-25,9.6c-4.5-0.5-7.9,2.4-11.8,3.6l-8.8,2.5l-5.4,2l-1.1,0.4
	c-0.2,0.2-0.3,0.5-0.4,0.8l0,0c-0.1,0.1-0.3,0.1-0.4,0.1c0.1,0,0.3,0,0.4,0.1c-0.3,0.7,0.1,1.6,0.8,1.9c0.2,0.1,0.3,0.1,0.5,0.1
	c2.7,0.3,5.5,0.4,8.2,0.3l1.1-0.8l2.2-1.7c3.5-0.5,7.2-0.6,10.2-2.9c4.9-0.3,10,0.4,14.1-3.2c28.2-4.8,55.2-13.7,81.9-23.5l28-10.2
	c2.7,0.2,5.1-0.1,6.5-2.9c2.5,0.1,4.7-0.4,6.1-2.8h0.1c5.9,0.1,11.2-1,14.3-6.7c4.7,1.1,7.7-1.2,9.6-5.2h0.1c2.5,0,4.7-0.7,5.8-3.1
	c2.5,0,4.8-0.6,5.9-3.2c0,0,0,0,0-0.1c0,0,0-0.1,0-0.1l0,0l26.8-18l3.2,3.5c-6.3,10.5-11.5,21.7-20.6,30.3c0,0,0,0,0-0.1h-0.1l0,0
	c0,0-0.1,0-0.1,0c-1.2,0.4-2.2,1.3-2.5,2.6l-0.1,0.3c0,0.1,0,0.3,0,0.4c-4.8,0.8-6.5,4-6.5,8.5c-1.4,0.5-2.5,1.7-2.8,3.2
	c-1.5,0.4-2.6,1.6-2.8,3.1l0,0l0,0l0,0c-0.9,0.2-1.6,0.7-2.2,1.4c-0.1,0.2-0.2,0.3-0.3,0.5c-0.2,0.4-0.3,0.8-0.3,1.2
	c0,0.1,0,0.1,0,0.2c-7.9,3.3-13.6,8.6-15.7,17.2c-2.2,2.7-4.2,5.5-6.7,7.9c-33,32.8-69,62-106.1,90c-1.3,0.8-2.6,1.4-4,1.9
	c-1.6,1.8-3.4,3.5-5.2,5c-22.9,16.2-45.9,32.4-68.9,48.5c-2.1,1.2-4.2,2.3-6.4,3.3c0,0,0-0.1,0-0.1l0,0h-0.1c0,0-0.1,0-0.1,0
	c-1.5,0.2-2.8,1.2-3.4,2.5l0,0c-5.2,1.2-9.1-2.9-13.8-3.8c-2,4.5-0.9,8.8-0.8,13.2c-1.4,0.4-2.2,1.7-3.4,2.5
	c-22.5,17.9-47.9,31.9-75.1,41.3c-1.9,0.5-3.8,0.8-5.8,0.9h-0.1c-3.3,0-6.8-0.6-9,3c-4.1,0.4-9-1.6-11.8,3.3
	c-3.4-0.3-6.9-0.9-9.2,2.7c-6.4,3.9-14.2,3.4-21,6.3c-3.6-0.6-7-0.4-9.8,2.2l-5.2,0.8l-5.9,0.4l-1.3-0.3l-1.8-0.5
	c-0.7,0.6-1.6,0.8-2.5,0.4c-5.3,0.3-11-2-15.6,2.6l0.3,0.5l-12.1-0.2c-4.2,0.3-8.8-1.4-12.2,2.6c-1.3,0.4-3.2,0.2-3.2,2.1
	c0,0.4,2.3,1,3.5,1.2c1,0.1,2,0,2.9-0.2c7.4-0.3,15,1.8,22.1-2.2l0,0c5.9-0.2,11.9-0.1,17.8-0.5s12,0.4,17.4-2.7l8.5-0.7
	c5.4,0.8,10.7,0.8,15.6-2.3c11.3-1.5,22.7-3.1,34-4.6c5.4-0.7,10.8-1.5,16.2-2.3c1.5,1,3.4,1.6,3.7,3.8
	c-40.5,34.6-85.3,62.5-133,85.9c-3.5,1.7-6.8,4.3-11,4.3l0,0l0,0h-0.2c-2.6-0.3-4.9,0.1-6.1,2.9c-2.6-0.2-4.9,0.2-6.1,2.9
	c-2.5-0.1-4.8,0.4-6.1,2.8c-3.3,0.2-7.1-0.7-8.5,3.6c-2.7-0.5-5-0.1-6.2,2.8c-2.6-0.3-4.9,0.1-6.2,2.8c-3.5,0-7.3-0.8-8.8,3.9
	l-27.6,13c-7.3-3.7-13.6,0.4-19.9,2.8c-28.5,10.7-56.9,21.6-85.6,31.4c-6.5,2.2-15.9,5.3-19.7-0.2c-4.1-6.1,5.1-10.4,9.2-14.9
	c26.6-29,53.8-57.5,81.5-85.4c0.4-0.4,0.7-0.8,1.1-1.3c3.5-4,7-8,10.6-12c25-27.5,51.6-53.6,79.7-77.9c0.9-0.9,1.8-1.8,2.7-2.8
	c0.4-0.5,0.8-0.9,1.2-1.4c0.8-0.9,1.6-1.7,2.3-2.6c0.4-0.4,0.8-0.8,1.1-1.2c0.8-0.8,1.5-1.6,2.2-2.4c0.4-0.4,0.7-0.8,1.1-1.1
	c0.7-0.7,1.5-1.5,2.2-2.2c0.3-0.4,0.7-0.7,1.1-1.1c0.7-0.7,1.5-1.4,2.1-2.1c0,0,1.1-1,1.1-1.1c0.7-0.7,1.5-1.4,2.1-2.1
	c0.3-0.4,0.7-0.7,1.1-1c0.7-0.7,1.5-1.4,2.2-2.1c0.4-0.4,0.8-0.7,1.1-1.1c0.8-0.7,1.6-1.4,2.4-2.2c0.4-0.4,0.8-0.7,1.2-1.1
	c0.9-0.7,1.8-1.5,2.6-2.3l0.1-0.1c0.7-0.6,1.4-1.2,2.1-1.9l0.6-0.6c12.4-13.7,27.7-24.4,40.8-37.5c1-0.9,2-1.9,3-2.9l0.3-0.3
	c0.9-0.9,1.8-1.7,2.6-2.7l0.9-0.9c20.1-19,41.3-36.8,61.5-55.8c1.3-1.4,2.7-2.8,4.2-4l0,0c0.9-0.4,1.8-1,2.4-1.8l0,0l0.2-0.1
	c1-0.6,1.9-1.3,2.8-2c0.9-0.7,1.7-1.4,2.5-2.2c0.4-0.4,0.8-0.8,1.2-1.2c0.8-0.8,1.6-1.5,2.3-2.3c0.4-0.4,0.8-0.8,1.2-1.1
	c0.8-0.8,1.7-1.5,2.4-2.3c0.4-0.4,0.9-0.8,1.3-1.1l1-0.8c0.4-0.3,0.8-0.7,1.1-1l0.5-0.5c1-0.8,1.9-1.6,2.8-2.4
	c26.9-21.4,52.1-45,79.7-65.6c0.5-0.4,0.9-0.8,1.4-1.2c0.6-0.6,1.2-1.1,1.9-1.6c23.7-20.7,49.3-39,73.8-58.6c1.5-1.5,3-2.9,4.6-4.2
	l0,0c0.7-0.4,1.4-0.8,2-1.4l0,0l0.5-0.3c1-0.6,2-1.3,2.9-2.1c0.9-0.7,1.8-1.4,2.7-2.2c0.9-0.7,1.8-1.4,2.6-2.2
	c0.2-0.1,0.3-0.2,0.5-0.4l0,0c1.1-0.4,2.1-1.1,2.9-2l0,0l0.7-0.5c1-0.6,1.9-1.2,2.8-1.9c0.9-0.7,1.8-1.4,2.7-2.2s1.8-1.4,2.7-2.2
	c0.2-0.1,0.3-0.2,0.5-0.3l0,0c0.7-0.3,1.4-0.8,2-1.3l0,0c1-0.6,2.1-1.2,3.1-1.9l0.6-0.4l0.9-0.6c0.8-0.5,1.5-1.1,2.2-1.7
	c27.4-20.7,55.3-40.7,83.5-60.2l4.2-2.9c0.6-0.4,1.1-0.8,1.7-1.2c40.5-27.5,80.9-54.9,122.6-80.6c1.3-0.8,2.6-1.6,4-2.4l0.6-0.4
	c61.1-38.8,123.1-76.2,186-112.2l1.4-0.8l1.1-0.7c19.1-11.5,38.3-22.9,57.9-33.6c1.1-0.6,2.2-1.3,3.3-2c0.4-0.3,0.8-0.6,1.2-0.9
	s0.9-0.7,1.4-1.1l0.2-0.2c0.9-0.7,1.7-1.4,2.6-2.1c1.3-0.9,2.7-1.6,4.1-2.2c1-0.4,1.9-0.9,2.8-1.4c1.5-0.7,3-1.3,4.5-2
	c1.1-0.5,2.1-1,3.1-1.6s2.2-1.1,3.2-1.8c14.5-8.9,30.1-16,43.8-26.3c1.2-1.5,2.5-2.9,3.9-4.3l0.4-0.4l1.4-0.3
	c0.1-0.3,0.2-0.6,0.2-0.9l0,0c0.6-0.4,1.2-0.8,1.8-1.1c1.5-0.8,2.9-1.5,4.4-2.2c1-0.5,1.9-1.1,2.8-1.8c0.4-0.3,0.8-0.6,1.3-0.9l0,0
	c1.2-0.6,2.3-1.3,3.3-2.1l0,0c0.8-0.5,1.5-0.9,2.2-1.4c0.5-0.3,1.1-0.6,1.6-0.9l0,0c1-0.2,1.9-0.7,2.6-1.3c1-0.4,1.9-0.9,2.8-1.4
	s1.9-0.9,2.8-1.4s1.9-0.9,2.8-1.4s1.8-0.9,2.7-1.5c0.9-0.5,1.8-1,2.6-1.6c0.8-0.6,1.6-1.2,2.3-1.8c0.7-0.5,1.4-1,2.1-1.4l0,0
	c1.2-0.3,2.3-0.9,3.2-1.7l0,0c0.7-0.3,1.4-0.7,2-1.2c0.3-0.2,0.6-0.3,0.8-0.4l0,0c0.7-0.2,1.4-0.5,2-0.9h0.1
	c0.3-0.1,0.6-0.2,0.8-0.4c0.9-0.3,1.8-0.8,2.6-1.3c0.9-0.4,1.7-0.9,2.6-1.4c0.9-0.4,1.7-0.9,2.5-1.5c0.8-0.6,1.6-1.1,2.3-1.8
	c0.6-0.4,1.3-0.9,1.9-1.3l0,0c1.2-0.3,2.4-0.9,3.3-1.8l0,0c0.7-0.3,1.4-0.7,2.1-1.2l0.7-0.4l0,0c0.7-0.2,1.5-0.5,2.1-1l0,0
	c0.3-0.2,0.7-0.3,1.1-0.5c0.9-0.4,1.9-0.9,2.7-1.5c1.4-0.7,2.8-1.3,4.2-2c0.9-0.5,1.8-1.1,2.7-1.7c1.3-0.9,2.7-1.8,4-2.7
	c0.9-0.5,1.8-1.1,2.7-1.7c0.7-0.4,1.4-0.8,2.1-1.1l1.2-0.2l1.8-0.3c0.1-0.4,0.2-0.7,0.2-1.1c0.6-0.3,1.2-0.6,1.7-0.9
	c0.9-0.5,1.9-0.9,2.8-1.4c1-0.4,1.9-0.9,2.8-1.5c1.4-0.8,2.8-1.4,4.2-2.1c0.9-0.5,1.8-1.1,2.5-1.9c0.2-0.2,0.4-0.5,0.6-0.8l0,0
	c0.4-0.4,0.7-0.8,0.9-1.4c5.5-1.1,9.8-4.4,14.3-7.5c1.7,0.2,2.6-0.6,3.2-2c12.9-5.6,25.1-12.6,36.6-20.8c3.2-0.1,5.4-2.4,8-3.8
	c3.6-0.8,6.9-2.7,9.3-5.5l5.8-3.2c0.2,0,0.3-0.1,0.4-0.2c1.9-0.9,3.8-1.8,5.7-2.6l7.5-2.8l1.3-0.5v0.1c0.2-0.1,0.3-0.3,0.5-0.4
	l2.7-2.3l-0.2-0.3c0.2,0,0.3-0.1,0.4-0.2c2.8-1.5,5.7-3,8.5-4.6c0.6-0.4,0.7-1.5,1-2.4c-0.8-0.2-1.9-1-2.5-0.7
	c-2.6,1.2-5.6,1.8-7.2,4.6l-6,0.7l-1,0.8l-5.2,4.3c-2.4,0.4-4.7,1-5.9,3.4l-4.9,0.5c-1.4,0.2-2.5,1.2-3.7,2l-0.6,0.3l0.4,1l-2.5-0.3
	c-1,0.4-1.9,0.9-2.7,1.5l-0.1,0.1l-0.9,0.5l-3.5,3.4l-4.4,0.6c-1.8,0.2-2.9,1.5-4.4,2.3l0.4,1.2c-0.8-0.1-1.5-0.2-2.2-0.4
	c-3-0.2-5.7,0-6.9,3.5c-4.7,2.6-9.4,5.1-14,7.7c-5.4,3.1-11.8,4.5-16.4,9.1c-2.5-0.2-4.9,1-6.2,3.1c-3.6,0.7-7,2.2-9.9,4.4l0,0
	c-0.9,0.1-1.9,0.4-2.7,0.8c-1.4,0.7-2.8,1.3-4.1,2c-0.9,0.4-1.8,0.8-2.7,1.4c-1.3,0.7-2.7,1.3-4,1.9c-0.9,0.4-1.8,0.9-2.7,1.4
	c-0.4,0.2-0.8,0.4-1.2,0.6l-1.4,0.1l-1.3,1l-0.3,0.3c0,0.1,0.1,0.1,0.1,0.1l-0.8,0.4c-2.3-0.9-3.9-0.6-4.4,2.1l-0.5,0.3l-0.6,0.3
	c-0.4-0.2-0.8-0.3-1.2-0.4c-2.1,0.4-4.2,0.8-4,3l0,0l-0.8,0.4c-0.4-0.2-0.8-0.3-1.2-0.4c-2.1,0.3-4.1,0.8-4,3l-0.8,0.4l0,0
	c-0.4-0.2-0.8-0.3-1.2-0.4c-2.1,0.3-4.1,0.8-4,3l-0.8,0.4c-0.4-0.2-0.8-0.3-1.2-0.4c-2.1,0.3-4.1,0.8-4,3l-0.8,0.4
	c-0.4-0.2-0.8-0.3-1.2-0.4c-2.1,0.3-4.1,0.8-4,3l-0.8,0.4l0,0c-0.4-0.2-0.8-0.3-1.2-0.4c-2.1,0.4-4.1,0.8-4,3l0,0l-0.9,0.4
	c-1.8-0.9-4-0.2-5,1.6c-0.2,0.3-0.3,0.7-0.4,1.1l0,0l-1.2,0.6c-2-0.7-3.6-0.4-4,2l-1,0.5l-0.5,0.2c-0.3-0.2-0.7-0.3-1-0.3
	c-2.1,0.4-4.2,0.8-4,3c-0.3,0.1-0.5,0.3-0.8,0.4c-0.5-0.3-1-0.5-1.6-0.6c-4.2,0.8-9.1,0.6-9.3,6.1l0,0l-1,0.6
	c-0.5-0.3-1-0.5-1.6-0.6c-3.8,0.1-6.7,1.4-8,5.3h-0.4c0,0.1,0,0.3,0,0.4c-0.4,0.2-0.7,0.4-1.1,0.6c-1,0.6-2,1.3-3,2
	c-1,0.6-2.1,1.1-3.1,1.6c-2.3,0.8-4.8,1-7.2,1.6c-21.5,8.7-41.5,20.4-62.4,30.4l-1,0.7c-1.2,0.8-2.4,1.6-3.6,2.3l0,0
	c-9,5.6-18.8,9.9-28.2,14.8c-13.1,6.9-26.8,12.7-37.7,23.1c0,0-0.1,0.1-0.2,0.1c-1.9,1.6-3.9,3-6,4.2
	c-52.1,27.5-102.7,57.6-152.7,88.8c-2,1.1-4,2.1-6.1,2.9c0-0.2,0-0.3,0-0.5l-0.6,0.7c-6.1-0.8-10.2,3.4-14.8,6.2
	c-22.4,13.8-44.3,28.3-66.7,42.2l-0.4,0.3l-0.6,0.4c-27.1,18.5-54.5,36.5-81.4,55.3l-1.8,1.3l-0.6,0.4
	c-36.5,25.8-72.3,52.4-108.2,79l-0.7,0.5l-1.1,0.7c-0.8,0.5-1.6,1.1-2.3,1.8c-1.1,0.9-2.2,1.8-3.2,2.8
	c-21.9,17.3-43.5,34.8-65.6,51.8c-1,0.6-1.9,1.3-2.8,2c-0.2,0.2-0.4,0.3-0.6,0.5l-0.9,0.7c-0.8,0.7-1.5,1.3-2.2,2
	c-25.5,21-50.7,42.2-75.8,63.6l0,0l-4.8,4l-7.8,6.6c-30.3,26.6-59.6,54.3-90.3,80.5l-0.3,0.2l-0.6,0.6c-22.6,23.9-48.5,44.3-71.3,68
	c-0.7,0.8-1.4,1.5-2.2,2.3l-1.2,1.2c-33.8,33.2-67.1,66.8-100.8,100c-0.5,0.5-1,1-1.5,1.5l-0.4,0.4c-21.8,23.3-43.5,46.8-65.3,70
	c-2,2.1-4,4.3-6.1,6.4c-2,2.1-4.1,4.3-6.1,6.4c-4.8,4.4-9.3,9-13.7,13.9c-5.7,6.7-11.7,11.9-21.3,11.8c-22.5-0.2-45-0.1-67.4,0
	c-9.2,0-13.6-4.1-14.8-13.2c-0.7-6,1.3-13.6-6.9-16.6c-0.4-8.9-0.4-17.8-1.3-26.7c-2.9-27.7-2.8-55.5-1.7-83.3
	c0.8-18.8,2.9-37.6,8.1-55.8c1.4-4.7,2.3-9.6,5.5-13.6c0.8-5.7,4.1-10.1,7.6-14.4c17.7-21.7,35.4-43.3,53.2-64.9
	c0.7-0.7,1.5-1.2,2.4-1.7c0.7-0.2,1.4-0.5,2-1c0,0,0.1,0,0.1-0.1c0.7-0.5,1.1-1.3,1.1-2.1l0.1,0.3l-0.1-0.7l0,0l0,0c0,0,0-0.1,0-0.1
	h-0.1c1.4-4.5,5-7.4,7.8-10.8c24.6-30.2,49.2-60.3,73.9-90.4l3.3,3.2c-5.4,21.5-11,43.1-16.3,64.6c-2.9,12-5.9,24-5.2,36.5
	c-2.2,3.5-2,7.5-2.2,11.4c-0.4,8.3-0.7,16.7-1,25c-2.1,3-1.9,6.5-2,9.9c-0.2,8-0.4,16-0.6,24.1c-0.1,0.2-0.1,0.4-0.2,0.6
	c-0.2,0.6-0.4,1.1-0.6,1.7l0.7,0.1c0.3,1.9,0.7,3.7,1,5.6l0.2-0.5c2.5-6.6,5.4-13.1,4.8-20.4c0-1.9,0.1-3.8,0.1-5.8
	c1.2-7,4.1-13.7,3.1-21c3-13.8,6.1-27.6,9.1-41.4c0.5-2.4,0.8-4.8,2.6-6.7c4.9-3,3-7.8,3.2-12.1c4.7-3,2.8-7.7,3.1-11.9
	c3.8-2.5,3-6.3,2.8-9.9c-0.5-0.6-0.4-1.5,0.2-1.9c0.1-0.1,0.2-0.1,0.3-0.2c3.4-2.3,2.8-5.8,2.7-9.1c3.9-2.5,3-6.3,2.8-10
	c-0.5-0.5-0.4-1.3,0.1-1.8c0.1-0.1,0.3-0.2,0.4-0.2c3.4-2.3,2.8-5.8,2.7-9.1c4-2.5,3-6.4,2.8-10.1l-0.3-1l0.7-0.8
	c2.7-20.7,9.5-39.5,24.2-55c12.3-13,23.5-27.1,37.6-38.4c2.7-4.9,7.3-8.2,11.3-11.8c15.5-14.1,31.2-28.1,46.9-41.9
	c3.7-3.3,7.9-5.9,11.9-8.8c3.7-5.6,9.5-8.8,14.5-12.8c24.6-19.7,49.8-38.5,77.1-54.5c6-3.5,11.7-7.6,18.7-9.1
	c2.5,4.7,0.9,9.2,0.2,13.4c-7.5,47.9-15.1,95.7-22.6,143.6c-0.6,3.9-0.7,8-1,11.9c-1.8,3-2.7,6.5-2.8,10c-0.2,2.5-0.2,5.1-0.5,7.6
	c-0.7,0.5-1.4,1-2.1,1.4c-0.3,3.8-0.6,7.5-0.8,11.3c-3,3.1-2.6,6.9-2.3,10.6c0,0.6,1.1,1.7,1.5,1.6c0.8-0.3,1.6-0.9,2-1.6
	c0.8-1.7,1.3-3.5,2-5.2c1-3.9,2-7.7,2.9-11.6c0.8-4,3.8-7.5,3.1-11.9c4-7.6,4.2-16.6,8.9-23.9c4.5-2.4,3.3-6.4,3.1-10.2l-0.3-1
	l0.7-0.7c0.2-8,3.6-15.3,5.8-22.8c6.9-24.7,14-49.3,21.1-74c1-2.8,2-5.5,3.3-8.2c3.4-2.2,2.8-5.7,2.8-9l0,0
	c4.9-21.9,12.6-43,23-62.8c2.9-5.8,7.3-10.8,12.7-14.5c7.9-5.1,14.5-12.1,23.2-16.2c3-2.6,5.8-5.4,8.9-7.7
	c18.3-13.6,36.7-27.2,55.1-40.7c4-2.9,8.3-5.3,12.4-8c2.5-0.2,4.6-0.9,5.4-3.5c0-0.1,0-0.1,0-0.2l0,0c0,0,0,0,0,0h-0.1
	c0.9-1.1,1.8-2.2,2.9-3.1c25.6-18.2,51.5-35.9,78.6-51.6c3.2-1.9,6.2-5,10.3-4.5c2,1.5,0.9,2.9,0.2,4
	c-20.5,34.2-37.4,70.3-50.7,107.9c-0.5,0.9-1.1,1.6-1.8,2.3l-6.5,25.8c-2.2,1.8-2.7,4.1-2.2,6.8c-0.7,0.7-0.9,1.7-0.6,2.6
	c-2.7,2.6-3.2,5.9-2.8,9.4c-0.7,0.5-0.9,1.3-0.5,2c-4.7,10.6-7.3,21.8-9,33.2c-3.5,5.8-3.8,12.4-5,18.9c-0.5,2.9-1,5.8-1.4,8.7
	c-3.2,3.5-2.2,8-2.8,12.1c-0.2,0-0.5-0.1-0.7-0.1c-0.5,0-1.1,0-1.6,0.2c-0.2,4-0.3,8-0.5,12c-3.8,3.3-2.2,7.9-2.8,12
	c-4.1,3.7-2.8,7.8-1.3,14.2c2-6.2,4.6-9.7,4.5-14.2l0,0c0.2-1,0.4-2,0.6-3.1l2.3-3.3l0,0c0-1.9,0-3.8-0.1-5.7l0.6,0.3
	c0.1-0.8,0.3-1.6,0.4-2.4c0.6-3.3,1.2-6.6,1.8-10l3-11.9l0.9-5c3.2-4.9,4.4-10.4,5.2-16c3.6-9.8,7.7-19.4,9.4-29.7
	c2-1.4,2.9-3.8,2.4-6.2c0.7-0.6,1-1.5,0.7-2.4c2.3-1.6,2.9-4,2.5-6.6c0.7-0.4,0.9-1.3,0.6-2c2.4-1.7,2.9-4.2,2.7-6.9
	c5.8-13.5,11.4-27,17.3-40.4c3-6.7,4.9-13.8,9.6-19.6c0.3-5.2,3.4-9.2,5.6-13.7c9.7-20.7,21-40.6,33.6-59.7c3.3-4.9,6-10.3,10.9-14
	c4.7-1,6.7-4.1,6.9-8.7v0c7.3-11.5,17.4-20.1,28.9-27.1c14.3-8.8,28.9-17.1,43.5-25.4c3.4-1.9,6.5-4.6,10.7-4.9l0,0
	c5.6-5.1,12.6-7.8,19.2-11.1c49.5-24.5,100.8-44.6,152.7-63.2c1.9-0.5,3.9-0.9,5.8-1.1c15.6-7.6,32.4-11.9,48.8-17.4
	c7.4-2.5,14.7-6.1,22.7-6.5l0.1,0.1l0,0c3.5,0.4,7.2,1.2,9.3-2.9c3.4,0.2,7,0.9,9.1-2.9c3.4,0.2,7,0.8,9.1-2.9
	c9.5-4.4,19.5-7.5,29.9-9l0,0h0.1c0.9,0,1.8,0.1,2.8,0.1h0.1c2.4,0,4.6-0.4,6.2-2.9c0.2-0.6,0.8-0.9,1.4-0.7
	c0.2,0.1,0.3,0.1,0.4,0.3c3.7,0.2,7.6,1.2,10-2.8c3.4,0.2,6.9,0.8,9.2-2.8c12.7-5.9,26.4-8.4,39.8-11.9
	c32.6-8.5,65.4-16.3,98.2-24.4c1.8,1,4.4,0.4,5.5,2.8l0.4,0.2c-1.6-0.1-3.1,0.9-3.6,2.4c-2.3,0.3-4.3,1.7-5.3,3.8
	c-1.6-0.1-3,0.9-3.5,2.4c-2.3,0.2-4.3,1.7-5.3,3.8h-0.1c-1.6-0.1-3,0.9-3.4,2.5c-3.6,0.9-6.7,3.1-8.7,6.2c-1.6,0-3,1-3.5,2.5
	c-3.6,0.9-6.7,3.2-8.7,6.3c-1.6,0-3.1,1.1-3.5,2.7l0,0c-8.7,4.2-15.9,10.6-23.2,16.8c-1.3-0.1-2.5,0.8-2.6,2.1l-0.2,0.2
	c-1.5,0-2.9,1.1-3.2,2.6l0,0c-8.9,4.8-16.4,11.4-23.9,18.1l-13.9,9.2c-1.8,0.1-3.3,1.2-4,2.9l0,0c-0.8,0.6-1.6,1.3-2.3,2l-0.7,0.6
	l-0.2,0.1l0,0c-3,3-5.9,6-8.9,9c-4.7,2.9-9.1,6.1-12.2,10.8c-1.6,0.9-3.2,1.9-3,4.1l-2.7,0.4l-15.7,11.5c-4.1,0.4-7.1,2.2-8.2,6.4
	c-1.5,0.4-2.7,1.5-3.1,3.1c0,0-0.1,0-0.1,0c0,0.1,0,0.2,0,0.3l-12.2,13.7c-1.6,0.7-2.9,1.7-3,3.7c-1.6-0.1-2.9,1.1-3,2.6
	c0,0.1,0,0.2,0,0.4c-1.5-0.1-2.9,1-3,2.5c0,0.2,0,0.4,0,0.5l-2.9,0.9l0,0l-2.9,2.4c-5.6,2.6-9.1,7.6-13.5,11.6
	c-6.4,5.7-12.6,11.6-18.9,17.5l-0.8,0.7c-0.2,1-0.5,2-0.7,2.9c-5,3-8.6,7.4-12.1,11.9l0,0l0,0c-6.5,5.3-12.7,10.9-17.1,18.1l0,0l0,0
	c-0.4,0.1-0.7,0.3-1,0.5c-0.2,0.1-0.1,0.5-0.2,0.8c0.4-0.4,0.8-0.9,1.2-1.3h0.1l0,0h0.4c0,0.1,0,0.2,0,0.3c0-0.1,0-0.2,0.1-0.3
	c2.2,0,4.4-0.8,6-2.4c5-5,10.8-9.3,14.6-15.5c3.9-3.2,7.8-6.3,11.7-9.5c0-0.1,0-0.1,0-0.2c0-0.8,0.1-1.6,0.2-2.4
	c10.9-8.8,21-18.6,30.2-29.2c0.1,0,0.1,0,0.2-0.1c1.3-0.5,2.3-1.7,2.7-3.1l0.2-0.2l0.8-0.5c0.5-0.1,1-0.4,1.4-0.8l0.8-0.5
	c0.5-0.4,1-0.7,1.4-1c0.9-0.7,1.8-1.4,2.7-2.2c0.4-0.4,0.9-0.8,1.3-1.2c0.9-0.8,1.8-1.5,2.6-2.4c0.4-0.4,0.9-0.8,1.3-1.2
	s0.9-0.8,1.4-1.2l0,0l7.1-4.5l0,0c0.2-0.2,0.4-0.4,0.6-0.6c2.9-3.3,5.8-6.6,8.7-9.9l0,0c1.6-1,3.1-2,3-4.2l2.7-0.6
	c6.1-3.1,11-7.7,15.3-13c0.9-0.5,1.7-1.2,2.4-1.9c0.4-0.3,0.9-0.6,1.3-0.9s1.1-0.8,1.6-1.2s0.9-0.8,1.4-1.1
	c5.6-2.7,9.7-7.2,14.2-11.3l14.7-9.7c0-0.3,0.1-0.6,0.1-0.9c0.1-0.4,0.2-0.8,0.3-1.3c5.6-3.4,11.2-6.8,15.5-11.8
	c8.3-5.2,16.7-10.3,24.1-16.7l0,0c1,0,2-0.3,2.9-0.6c1-0.5,2-1.2,3-1.8c1-0.6,2-1.1,3.1-1.6c1.7-0.6,3.4-1.1,5.1-1.8
	c7.2-4,15.8-6.3,19-15.4l-0.3-0.6l0.2-0.2c3.2,1,5.6,0.7,5.6-3.4c0.2,0.3,0.4,0.5,0.7,0.8c1.3,0.3,2.6,0.6,3.5,0
	c0.6-0.5,1.1-1.2,1.2-2c1.3-1.4,2.6-2.9,3.9-4.3c2.4-0.3,4.6-1,5.8-3.3c2.4,0.1,4.6-1.2,5.8-3.3c3.7-0.5,7-2.4,9.4-5.2
	c2.4-0.3,4.6-0.9,5.9-3.2c2.4-0.2,4.6-0.8,5.9-3.2c2.6-0.2,4.8-0.9,6.2-3.3c8.2-3.7,16.2-7.5,24.5-11c15.5-6.7,30.4-15.1,46.9-19.2
	c3.4-0.1,7,0.6,8.9-3.4c12.2-6.9,25.7-10.5,39-14.5c20.4-6.3,41.2-11.7,61.8-17.4c2.3-0.6,4.9-0.4,7.4-0.6c0.4-0.7,1.2-0.9,1.9-0.6
	c0.1,0,0.2,0.1,0.3,0.2c4.5,0,9.4,1.8,12.9-2.8c13.6-5.1,28.1-6.3,42.4-8.6c9.8-1.6,19.5-4.5,29.6-3.3c0.5-0.7,1.5-0.9,2.2-0.4
	c0.1,0,0.1,0.1,0.2,0.1c6.2,0.1,12.3,0.1,18.5,0.1c2.4,0.1,4.7-1,6.2-2.9c1.5-1,3.4-1.1,5-0.4l29.3,0.3c3,0,5.8-0.4,7.8-3
	c9.3-2.1,18.7-2.2,28.1-2.3c17.4-0.2,34.8,0,52,0C2323.3,2.4,2322.3,3.9,2320.6,5.2z"/>
<path class="st1" d="M383.5,1514.6c-0.5-4.8,2.3-7.1,4.2-9.8c41.3-57.6,84.1-114.2,128.3-169.7c1.2-1.6,2.5-3.1,3.7-4.7
	c2.1-2.8,5.6-4.3,9.1-3.9c13.9,0.9,27.9,1.6,41.5,2.4c1.7,3.4-0.4,5.1-1.9,7c-40.2,51-79.2,102.9-117,155.6
	c-3.7,5.2-7.8,8.3-14.2,9.7C419.3,1505.3,401.5,1510.1,383.5,1514.6z"/>
<path class="st1" d="M586.9,1281.3c-7-0.3-14-0.6-21-1c-2-0.1-3-2.7-1.8-4.4c1.5-2,3-4,4.6-5.9c27.1-32,54.4-64,81.2-96.2
	c5-6,10-8.6,17.9-7.8c10.9,1.1,22,1,32.9,1.5c1.4,0.1,3.3,0,3.5,1.9c0.1,1.4-0.4,2.8-1.2,3.9c-2.4,3.2-5.2,6.1-7.7,9.2
	c-24.8,29.4-49.6,58.8-74.4,88.2c-11.1,13.1-6.4,11.6-25.1,10.9c-3-0.1-6,0-9,0L586.9,1281.3z"/>
<path class="st0" d="M528.3,1455.2c1.2,2.5,3.7,2.6,6,2.9c-4.1,4-8.8,7.2-14.1,9.5c-3.3,1-4.4-0.5-4-3.7
	C519.6,1460.1,523.3,1456.8,528.3,1455.2z"/>
<path class="st0" d="M516.2,1464l4,3.7c-4.4,4.7-9.5,8.7-15,11.9c-1.5,1.2-3.6,0.9-4.8-0.5c0-0.1-0.1-0.1-0.1-0.2
	C504.5,1472.8,509.9,1467.8,516.2,1464z"/>
<path class="st0" d="M489.2,1490.9c1.2-2.5,2.6-4.9,5.4-6c1.6-1.4,3.1-1.3,4.3,0.5c-2.3,3.8-5.6,7.1-9.5,9.3
	C488,1493.6,487.9,1492.3,489.2,1490.9z"/>
<path class="st0" d="M498.9,1485.4l-4.3-0.5c1.1-2.6,3.2-4.8,5.7-6.2l4.9,0.7C503.7,1482.1,501.5,1484.1,498.9,1485.4z"/>
<path class="st0" d="M486.2,1500.1c-0.3,0.9-0.7,1.7-1.2,2.4c-0.9,0.8-2.7,2-3.1,1.7c-2.1-1.6-0.7-2.9,0.9-3.9
	c0.8-1,2.2-1.1,3.2-0.4C486.1,1499.9,486.2,1500,486.2,1500.1z"/>
<path class="st0" d="M489.2,1490.9l0.2,3.8c0,1.5-1.2,2.7-2.8,2.7l-0.8-0.7C485.6,1494.3,487,1492,489.2,1490.9z"/>
<path class="st0" d="M543.2,1445.7c-1,2.7-3.1,3.6-5.8,3.4C538.4,1447,540.7,1445.6,543.2,1445.7z"/>
<path class="st0" d="M537.3,1449.2c-0.6,1.6-2.1,2.6-3.8,2.6C534,1450.1,535.6,1449,537.3,1449.2z"/>
<path class="st0" d="M546.3,1451.5c0.5-1.4,2-2.3,3.5-2.1C549.3,1450.8,547.8,1451.8,546.3,1451.5z"/>
<path class="st0" d="M531.3,1452.9c-0.3,1.4-1.6,2.4-3,2.2C528.8,1453.6,529.6,1452.7,531.3,1452.9z"/>
<path class="st0" d="M540.3,1454.7c0.6-1.5,2.1-2.4,3.7-2.3C543.5,1454,541.9,1455,540.3,1454.7z"/>
<path class="st0" d="M534.3,1458.1c0.7-1.6,2.3-2.6,4.1-2.5C537.7,1457.3,536.1,1458.3,534.3,1458.1z"/>
<path class="st0" d="M486.2,1500.1l-3.5,0.1l3-3.4l0.8,0.7C486.6,1498.3,486.5,1499.2,486.2,1500.1z"/>
</svg>
